<svg width="246" height="246" viewBox="0 0 246 246" fill="none" xmlns="http://www.w3.org/2000/svg">
<path d="M168.34 54.0167C173.014 51.4165 180.298 56.7227 183.518 59.7017C187.282 63.1654 190.318 67.5737 192.652 72.1124C203.253 92.7174 208.824 117.231 200.114 139.558C197.18 147.117 192.603 153.929 186.714 159.501C183.403 162.618 176.589 165.558 175.595 170.325C175.382 171.509 175.466 172.727 175.841 173.87C177.157 178.239 181.13 181.268 184.165 184.448C198.741 199.752 188.202 223.476 172.618 233.7" stroke="#CCDDE2" stroke-width="2" stroke-miterlimit="10"/>
<path d="M54.0388 134.361C58.5898 129.527 64.4053 126.26 70.2527 123.254C76.5847 119.999 82.8159 116.722 88.5723 112.496C92.0768 109.929 95.3924 107.113 98.4935 104.071" stroke="#CCDDE2" stroke-width="2" stroke-miterlimit="10"/>
<path d="M46.6515 195.587C40.836 180.564 39.36 163.344 45.4264 148.338" stroke="#CCDDE2" stroke-width="2" stroke-miterlimit="10"/>
<path d="M122.855 40.2852V24.182C122.855 23.0729 122.414 22.0092 121.63 21.2249C120.846 20.4406 119.782 20 118.673 20H65.3475C64.2383 20 63.1745 20.4406 62.3903 21.2249C61.6061 22.0092 61.1655 23.0729 61.1655 24.182V99.9058C61.1701 101.012 61.6127 102.071 62.3964 102.852C63.1802 103.632 64.2415 104.071 65.3475 104.071H118.68C119.198 104.074 119.711 103.976 120.191 103.78" stroke="black" stroke-width="2" stroke-linecap="round" stroke-linejoin="round"/>
<path d="M116.98 22.558H67.0498C64.8392 22.558 63.0474 24.35 63.0474 26.5604V97.524C63.0474 99.7346 64.8392 101.526 67.0498 101.526H116.98C119.191 101.526 120.983 99.7346 120.983 97.524V26.5604C120.983 24.35 119.191 22.558 116.98 22.558Z" fill="#3FBDF1"/>
<path d="M116.203 28.6686H68.4594C67.3533 28.6686 66.4569 29.565 66.4569 30.671V41.4508C66.4569 42.5568 67.3533 43.4532 68.4594 43.4532H116.203C117.309 43.4532 118.205 42.5568 118.205 41.4508V30.671C118.205 29.565 117.309 28.6686 116.203 28.6686Z" fill="#3FBDF1"/>
<path d="M92.0139 34.8981C92.8589 34.8981 93.544 34.2129 93.544 33.3679C93.544 32.5229 92.8589 31.8378 92.0139 31.8378C91.1688 31.8378 90.4837 32.5229 90.4837 33.3679C90.4837 34.2129 91.1688 34.8981 92.0139 34.8981Z" fill="#D7E8F0"/>
<path d="M87.7408 40.2852C87.7408 39.1519 88.191 38.0651 88.9922 37.2636C89.7937 36.4624 90.8805 36.0122 92.0139 36.0122C93.1472 36.0122 94.234 36.4624 95.0352 37.2636C95.8367 38.0651 96.2869 39.1519 96.2869 40.2852H87.7408Z" fill="#D7E8F0"/>
<path d="M92.3263 59.2985C90.696 59.2976 89.102 59.7802 87.746 60.6852C86.3901 61.5905 85.333 62.8773 84.7086 64.3836C84.0843 65.8896 83.9207 67.5469 84.2385 69.1459C84.5564 70.7452 85.3414 72.214 86.4941 73.3668C87.6469 74.5196 89.1157 75.3045 90.7147 75.6224C92.314 75.9402 93.9713 75.7766 95.4773 75.1523C96.9833 74.5279 98.2704 73.4708 99.1757 72.1149C100.081 70.7589 100.563 69.1649 100.562 67.5346C100.562 65.3504 99.6937 63.2559 98.1493 61.7116C96.605 60.1672 94.5105 59.299 92.3263 59.2985ZM92.3263 73.783C92.0072 73.783 91.7012 73.6563 91.4756 73.4307C91.25 73.2049 91.1233 72.8991 91.1233 72.5801C91.1233 72.261 91.25 71.955 91.4756 71.7294C91.7012 71.5038 92.0072 71.3771 92.3263 71.3771C92.6453 71.3771 92.9514 71.5038 93.1769 71.7294C93.4025 71.955 93.5292 72.261 93.5292 72.5801C93.5292 72.8991 93.4025 73.2049 93.1769 73.4307C92.9514 73.6563 92.6453 73.783 92.3263 73.783ZM93.8515 64.5211C93.5932 66.3071 93.3742 68.189 92.8503 69.9331C92.7223 70.3464 91.9376 70.3464 91.8097 69.9331C91.4333 68.6269 91.144 67.2972 90.9438 65.9528C90.7839 64.9688 90.2058 63.3944 90.7593 62.44C91.2365 61.5937 92.592 61.4879 93.3742 61.9307C94.3435 62.4842 93.972 63.6331 93.8515 64.5211Z" fill="#D7E8F0"/>
<path d="M92.3263 73.7823C92.9907 73.7823 93.5292 73.2438 93.5292 72.5793C93.5292 71.9151 92.9907 71.3764 92.3263 71.3764C91.6618 71.3764 91.1234 71.9151 91.1234 72.5793C91.1234 73.2438 91.6618 73.7823 92.3263 73.7823Z" fill="white"/>
<path d="M93.8515 64.5209C93.5932 66.3068 93.3742 68.1887 92.8503 69.9329C92.7223 70.3462 91.9376 70.3462 91.8097 69.9329C91.4333 68.6269 91.144 67.2972 90.9438 65.9526C90.7839 64.9686 90.2058 63.3942 90.7593 62.4397C91.2365 61.5935 92.592 61.4877 93.3742 61.9305C94.3435 62.484 93.972 63.6328 93.8515 64.5209Z" fill="white"/>
<path d="M71.6328 50.0561H111.869" stroke="white" stroke-width="2" stroke-miterlimit="10"/>
<path d="M71.6328 54.0142H111.869" stroke="white" stroke-width="2" stroke-miterlimit="10"/>
<path d="M71.6328 79.5195H111.869" stroke="white" stroke-width="2" stroke-miterlimit="10"/>
<path d="M121.664 89.7265C121.817 89.8446 122.082 40.1083 122.082 40.1083L106.946 34.2584C106.946 34.2584 95.694 61.8375 96.3754 62.1155L99.4136 63.3455C99.4136 63.3455 100.164 62.7526 101.903 67.0355C103.642 71.3184 116.178 85.5076 121.664 89.7265Z" fill="white"/>
<path d="M80.9783 83.2661H102.523" stroke="white" stroke-width="2" stroke-miterlimit="10"/>
<path d="M182.232 112.105C182.035 114.25 179.388 138.855 181.954 143.659C182.884 145.398 173.654 143.733 173.098 143.605C164.734 141.637 156.901 138.008 149.57 133.595C142.24 129.182 135.763 123.374 128.119 119.46C126.707 118.737 123.581 117.153 124.506 115.079C126.08 111.546 128.014 106.671 128.166 102.358L128.119 96.7001C128.119 96.7001 127.002 93.1479 130.646 96.2598C134.289 99.3717 150.96 107.576 161.752 98.0704C172.544 88.5649 173.184 81.0472 173.184 81.0472C173.184 81.0472 166.274 64.1371 146.601 74.4814L153.551 56.5234C153.551 56.5234 152.599 55.3156 155.61 55.5394C158.621 55.7633 164.205 54.275 164.896 48.7572C164.896 48.7572 164.95 46.9565 168.136 50.3611C171.322 53.7658 186.377 67.0621 182.232 112.105Z" fill="#2E2E2E"/>
<path d="M143.556 48.4052C145.244 47.1673 147.134 46.2325 149.142 45.6426" stroke="black" stroke-width="2" stroke-miterlimit="10"/>
<path d="M136.077 132.365L122.547 181.28L110.247 225.762L102.415 226.5C100.619 226.665 98.9498 227.495 97.7338 228.827C96.5181 230.159 95.8433 231.897 95.8416 233.7H120.065L137.61 203.462L150.66 180.965L171.063 145.787C171.654 144.761 172.227 143.735 172.785 142.687C172.795 142.675 172.8 142.661 172.8 142.646" stroke="black" stroke-width="2" stroke-miterlimit="10"/>
<path d="M181.73 115.867C181.915 114.671 182.077 113.475 182.222 112.272C182.222 112.216 182.222 112.167 182.237 112.11C183.065 104.825 183.241 97.4807 182.763 90.1644C182.766 90.1433 182.766 90.1216 182.763 90.1005C182.222 82.1374 180.761 73.7734 177.843 65.6185C176.996 63.2665 175.948 60.9915 174.712 58.8191C174.621 58.6395 174.517 58.4624 174.404 58.2853C174.016 57.6063 173.597 56.9446 173.174 56.2902C172.601 55.4268 171.993 54.5879 171.356 53.7884C170.406 52.5744 169.353 51.445 168.207 50.4133C168.2 50.4106 168.193 50.4064 168.188 50.401C168.182 50.3953 168.178 50.3887 168.175 50.3813C167.325 49.6278 166.42 48.9373 165.469 48.3149C165.292 48.1944 165.115 48.0812 164.936 47.968C164.908 47.9466 164.878 47.9277 164.847 47.9115" stroke="black" stroke-width="2" stroke-miterlimit="10"/>
<path d="M150.66 180.965L169.686 233.7H142.232C142.232 231.986 142.854 230.332 143.983 229.042C145.111 227.753 146.669 226.918 148.368 226.691L154.343 225.892C154.343 225.892 146.309 215.314 137.615 203.459" stroke="black" stroke-width="2" stroke-miterlimit="10"/>
<path d="M154.035 55.276L145.789 76.5697C145.54 77.2125 145.166 77.7995 144.688 78.2961C144.21 78.7931 143.638 79.1896 143.005 79.4632C142.373 79.737 141.692 79.8819 141.002 79.8897C140.313 79.8976 139.629 79.7685 138.99 79.5094L119.458 71.603C119.448 71.5764 119.44 71.5494 119.433 71.5218C119.187 70.5378 116.663 61.1062 113.603 61.1062C111.253 61.1062 112.373 65.758 113.357 68.3902C113.47 68.6731 113.576 68.9388 113.672 69.1651L113.519 69.1012L98.2253 62.8675L107.871 37.441L126.702 44.7152L154.035 55.276Z" fill="#D7E8F0"/>
<path d="M113.667 69.1658C112.641 66.8165 111.008 61.1069 113.605 61.1069C116.666 61.1069 119.187 70.5459 119.435 71.5225L119.46 71.6037L138.99 79.5126C139.63 79.7712 140.315 79.8998 141.005 79.8912C141.695 79.8823 142.376 79.7365 143.01 79.4617C143.643 79.1869 144.215 78.7889 144.692 78.2907C145.17 77.7928 145.544 77.2046 145.792 76.5606L154.98 52.8216L125.775 41.5327L106.946 34.2584L96.368 62.1155L113.667 69.1658Z" stroke="black" stroke-width="2" stroke-miterlimit="10"/>
<path d="M174.205 68.5676C174.79 78.7766 172.51 91.8367 159.494 99.5242C140.24 110.909 114.757 85.116 105.322 72.5995C103.764 70.5439 102.447 68.3152 101.399 65.9575C101.081 65.2714 100.815 64.5627 100.602 63.837" stroke="black" stroke-width="2" stroke-miterlimit="10"/>
<path d="M127.95 94.4957C127.95 94.4957 129.426 105.248 124.875 114.39L124.894 114.365C124.894 114.365 124.894 114.382 124.879 114.39C117.893 127.494 107.891 148.399 113.47 163.59C115.367 168.756 118.636 174.906 122.545 181.282" stroke="black" stroke-width="2" stroke-miterlimit="10"/>
<path d="M161.826 32.1844L161.841 32.2533C161.959 33.6936 161.501 35.1219 160.566 36.224C159.631 37.3261 158.297 38.0119 156.857 38.1302C155.935 38.2102 155.008 38.0483 154.168 37.6604C153.928 37.5583 153.696 37.4358 153.477 37.2938C153.387 37.2314 153.314 37.148 153.263 37.051C153.213 36.9539 153.186 36.8461 153.186 36.7367C153.186 36.6272 153.213 36.5194 153.263 36.4225C153.314 36.3253 153.387 36.2419 153.477 36.1795C154.535 35.4169 155.502 34.3541 155.777 33.1094C155.86 32.7266 155.867 32.3313 155.797 31.9458C155.721 31.4545 155.519 30.9918 155.209 30.6034C154.899 30.2149 154.493 29.9143 154.03 29.7318C153.886 29.689 153.736 29.6649 153.585 29.6605C153.16 29.626 152.601 29.6801 152.49 29.995C153.034 28.4686 153.056 26.8051 152.554 25.2644C152.243 24.3112 151.717 23.442 151.017 22.7233C151.049 23.0018 151.019 23.2838 150.929 23.5494C150.84 23.8149 150.692 24.0574 150.499 24.2597C150.305 24.4619 150.068 24.6189 149.807 24.7196C149.545 24.8199 149.264 24.8615 148.985 24.8413C146.818 24.7675 146.409 22.7011 146.409 22.7011C146.409 22.7011 146.409 22.7258 146.409 22.7405C145.465 25.0947 142.719 25.1587 140.751 24.1132C140.053 23.7551 139.44 23.2518 138.953 22.6372C138.395 20.2239 140.385 17.8919 142.68 17.5573C142.729 16.0223 143.849 14.379 145.359 14.2535C145.885 14.2085 146.414 14.3056 146.89 14.5344C147.366 14.7633 147.771 15.1157 148.065 15.5548C148.107 15.6213 148.154 15.6926 148.19 15.7664C148.808 14.871 149.819 13.8894 150.896 13.7984C151.644 13.746 152.389 13.9246 153.032 14.31C153.674 14.6955 154.182 15.2692 154.488 15.9534C154.488 15.8476 155.435 15.4146 155.531 15.3753C156.416 15.039 157.387 15.0066 158.292 15.2832C159.197 15.5597 159.984 16.1296 160.53 16.9029C160.585 17.1167 160.621 17.3348 160.638 17.5549C160.692 18.2128 160.591 18.8742 160.343 19.4859C160.692 19.5856 161.019 19.7528 161.305 19.9779C161.923 20.4304 162.337 21.1084 162.458 21.8647C162.471 21.941 162.478 22.0173 162.483 22.0935C162.532 22.6699 162.409 23.248 162.129 23.754C162.856 23.9618 163.517 24.356 164.046 24.8974C164.574 25.4389 164.952 26.109 165.142 26.8413C165.202 27.0836 165.243 27.3306 165.263 27.5793C165.347 28.6334 165.044 29.6819 164.412 30.5293C163.78 31.3766 162.86 31.965 161.826 32.1844Z" fill="#3FBDF1"/>
<path d="M161.826 32.1839L161.841 32.2528C161.959 33.6931 161.501 35.1214 160.566 36.2235C159.631 37.3256 158.297 38.0114 156.857 38.1297C155.935 38.2097 155.008 38.0478 154.168 37.6599C155.226 36.8973 156.193 35.8321 156.466 34.5874C156.563 34.1246 156.552 33.6457 156.435 33.1876C156.318 32.7296 156.097 32.3047 155.789 31.9453C155.714 31.4543 155.511 30.9913 155.201 30.6029C154.891 30.2145 154.485 29.9138 154.023 29.7313C153.878 29.6885 153.729 29.6644 153.578 29.66C153.724 28.1215 153.362 26.5773 152.547 25.264C152.235 24.3108 151.709 23.4416 151.01 22.7228C151.041 23.0013 151.012 23.2834 150.922 23.5489C150.832 23.8145 150.685 24.057 150.491 24.2592C150.297 24.4615 150.061 24.6185 149.799 24.7191C149.538 24.8194 149.257 24.8613 148.978 24.8408C146.81 24.767 146.402 22.7007 146.402 22.7007C146.402 22.7007 146.402 22.7253 146.402 22.7401C145.457 25.0942 142.712 25.1582 140.744 24.1127C140.046 23.7546 139.433 23.2514 138.946 22.6367C138.387 20.2235 140.377 17.8914 142.673 17.5568C142.722 16.0218 143.841 14.3785 145.352 14.2531C145.878 14.2081 146.406 14.3051 146.882 14.534C147.358 14.7629 147.764 15.1153 148.058 15.5544C148.099 15.6208 148.146 15.6922 148.183 15.766C148.8 14.8705 149.812 13.889 150.889 13.798C151.638 13.7439 152.385 13.9218 153.029 14.3074C153.673 14.693 154.182 15.2675 154.488 15.9529C154.488 15.8471 155.435 15.4142 155.531 15.3748C156.416 15.0385 157.387 15.0061 158.292 15.2827C159.197 15.5593 159.984 16.1292 160.53 16.9025C160.585 17.1163 160.621 17.3344 160.638 17.5544C160.692 18.2123 160.591 18.8738 160.343 19.4855C160.692 19.5852 161.019 19.7523 161.305 19.9775C161.26 20.3154 161.171 20.6461 161.041 20.9615C161.587 21.1213 162.078 21.4296 162.458 21.852C162.471 21.9283 162.478 22.0045 162.483 22.0808C162.532 22.6572 162.409 23.2352 162.129 23.7413C162.495 23.8457 162.846 23.9979 163.172 24.1939C163.119 24.5536 163.002 24.9009 162.827 25.2197C163.758 25.4814 164.573 26.048 165.142 26.8285C165.202 27.0708 165.243 27.3178 165.263 27.5665C165.35 28.6226 165.049 29.6742 164.416 30.5242C163.784 31.3741 162.863 31.9643 161.826 32.1839Z" fill="#3FBDF1"/>
<path d="M142.71 27.2541C142.71 27.2541 145.829 27.2984 146.545 29.9306" stroke="black" stroke-width="2" stroke-miterlimit="10"/>
<path d="M141.905 35.1416C141.195 35.3167 140.459 35.3527 139.735 35.2474C139.599 35.224 139.471 35.1682 139.361 35.0845C139.252 35.0006 139.164 34.8917 139.106 34.7667C139.048 34.6417 139.021 34.5045 139.027 34.3667C139.033 34.2289 139.073 34.0946 139.143 33.9756C139.792 32.8759 140.461 31.7886 141.189 30.7431C141.303 30.61 141.374 30.4452 141.391 30.2708C141.391 30.2708 141.091 27.0162 141.748 24.5193" stroke="black" stroke-width="2" stroke-miterlimit="10"/>
<path d="M144.36 30.0241C144.426 29.4996 144.117 29.029 143.671 28.9729C143.225 28.9168 142.81 29.2964 142.744 29.8206C142.678 30.3451 142.986 30.8157 143.433 30.8718C143.879 30.9279 144.294 30.5483 144.36 30.0241Z" fill="black"/>
<path d="M159.098 37.439C159.164 38.0909 162.089 42.605 164.734 47.5889C164.733 47.5971 164.733 47.6054 164.734 47.6135C164.783 47.7193 164.832 47.8325 164.889 47.9456" stroke="black" stroke-width="2" stroke-linecap="round" stroke-linejoin="round"/>
<path d="M148.547 42.2111L149.467 48.7597" stroke="black" stroke-width="2" stroke-miterlimit="10"/>
<path d="M140.778 35.3059C140.778 35.3059 142.112 41.7905 145.391 42.772C148.67 43.7536 151.516 39.6626 151.516 39.6626" stroke="black" stroke-width="2" stroke-linecap="round" stroke-linejoin="round"/>
<path d="M141.674 38.2309C142.11 38.4855 142.602 38.6274 143.106 38.6436C143.61 38.6599 144.111 38.5502 144.562 38.3243" stroke="black" stroke-width="2" stroke-linecap="round" stroke-linejoin="round"/>
<path d="M147.831 15.4709C147.792 14.9678 147.623 14.4837 147.339 14.0662C146.979 13.513 146.443 13.0966 145.818 12.8836C145.193 12.6705 144.515 12.6732 143.892 12.891C143.269 13.1089 142.736 13.5294 142.38 14.0854C142.024 14.6414 141.865 15.3007 141.927 15.9579" stroke="black" stroke-width="2" stroke-miterlimit="10" stroke-linecap="round"/>
<path d="M146.562 19.9486C146.5 19.238 146.266 18.5531 145.88 17.9531C145.494 17.3531 144.969 16.856 144.348 16.5046C141.221 14.7555 137.214 18.1528 138.333 21.5181C138.727 22.689 139.664 23.5402 140.732 24.106C142.7 25.1515 145.455 25.09 146.39 22.7333L146.404 22.6964C146.404 22.6964 146.813 24.7604 148.98 24.8367C149.26 24.8563 149.541 24.8143 149.802 24.7137C150.064 24.6128 150.301 24.4556 150.495 24.2533C150.69 24.051 150.837 23.8084 150.927 23.5428C151.017 23.2771 151.048 22.9949 151.017 22.7161C152.882 24.6349 153.369 27.5033 152.493 29.9904C152.653 29.5426 153.723 29.6238 154.033 29.7271C155.366 30.1921 156.077 31.7689 155.782 33.1072C155.504 34.3593 154.537 35.4171 153.484 36.1846C153.395 36.2469 153.321 36.33 153.271 36.4267C153.22 36.5236 153.193 36.6314 153.193 36.7406C153.193 36.8498 153.22 36.9576 153.271 37.0542C153.321 37.1512 153.395 37.2343 153.484 37.2965C154.487 37.9408 155.675 38.235 156.862 38.1329C158.302 38.0144 159.636 37.329 160.57 36.2274C161.505 35.1258 161.964 33.6983 161.846 32.2585L161.831 32.1896C162.781 31.9906 163.638 31.4791 164.264 30.7367C164.89 29.9943 165.249 29.0637 165.284 28.0934C165.319 27.1232 165.029 26.1687 164.459 25.3828C163.889 24.5969 163.072 24.0244 162.139 23.7567C162.419 23.2506 162.542 22.6726 162.493 22.0962C162.425 21.3142 162.051 20.5908 161.452 20.0838C160.853 19.5769 160.077 19.3275 159.295 19.3902" stroke="black" stroke-width="2" stroke-linecap="round" stroke-linejoin="round"/>
<path d="M147.706 13.948C148.296 12.964 148.948 12.4129 150.166 12.3121C150.921 12.2504 151.677 12.4263 152.328 12.8153C152.979 13.2044 153.491 13.787 153.794 14.4818C153.752 14.3859 154.741 13.9357 154.842 13.8963C155.237 13.7456 155.651 13.6544 156.072 13.6257C157.195 13.5653 158.299 13.9409 159.152 14.6743C160.005 15.4077 160.542 16.4421 160.65 17.5617C160.704 18.2196 160.603 18.8811 160.355 19.4928" stroke="black" stroke-width="2" stroke-linecap="square" stroke-linejoin="round"/>
<path d="M164.734 47.5914C164.734 47.5914 167.032 55.2322 153.895 55.6454" stroke="black" stroke-width="2" stroke-miterlimit="10"/>
<path d="M96.432 124.143C96.4099 118.557 101.901 117.054 104.53 117.103C120.828 117.413 123.285 91.0564 123.285 91.0564" stroke="black" stroke-width="2" stroke-linecap="round" stroke-linejoin="round"/>
<path d="M181.73 115.866C181.73 115.866 179.806 134.842 181.73 141.229C183.654 147.615 172.591 142.604 172.591 142.604" stroke="black" stroke-width="2" stroke-miterlimit="10"/>
<path d="M71.5147 130.169H58.7251" stroke="black" stroke-width="2" stroke-linecap="round" stroke-linejoin="round"/>
<path d="M117.34 130.169H92.8675" stroke="black" stroke-width="2" stroke-linecap="round" stroke-linejoin="round"/>
<path d="M89.3571 130.169H74.9095" stroke="black" stroke-width="2" stroke-linecap="round" stroke-linejoin="round"/>
<path d="M88.9856 124.143H74.7004" stroke="black" stroke-width="2" stroke-linecap="round" stroke-linejoin="round"/>
<path d="M100.368 124.143H92.6559" stroke="black" stroke-width="2" stroke-linecap="round" stroke-linejoin="round"/>
<path d="M119.972 124.143H105.076" stroke="black" stroke-width="2" stroke-linecap="round" stroke-linejoin="round"/>
<path d="M71.1309 124.143H68.6045" stroke="black" stroke-width="2" stroke-linecap="round" stroke-linejoin="round"/>
<path d="M88.5133 123.602H91.8171C91.8171 123.602 95.603 127.177 91.8171 131.268V134.126H88.5133" stroke="black" stroke-width="2" stroke-linecap="round" stroke-linejoin="round"/>
<path d="M73.9648 123.602C73.9648 123.602 77.7508 127.177 73.9648 131.268V134.126" stroke="black" stroke-width="2" stroke-linecap="round" stroke-linejoin="round"/>
<path d="M73.9648 134.126H70.661V131.268C74.4494 127.177 70.661 123.602 70.661 123.602H73.9648" stroke="black" stroke-width="2" stroke-linecap="round" stroke-linejoin="round"/>
<path d="M88.5133 123.602C88.5133 123.602 92.3017 127.177 88.5133 131.268V134.126" stroke="black" stroke-width="2" stroke-linecap="round" stroke-linejoin="round"/>
<path d="M70.661 131.268H73.9648" stroke="black" stroke-width="2" stroke-linecap="round" stroke-linejoin="round"/>
<path d="M88.5133 131.268H91.8171" stroke="black" stroke-width="2" stroke-linecap="round" stroke-linejoin="round"/>
<path d="M101.249 122.319C100.827 122.857 100.526 123.479 100.368 124.144C100.159 125.126 100.081 126.131 100.134 127.133C100.149 128.117 100.272 129.125 101.207 129.642C102.612 130.427 104.299 129.305 104.373 127.696C104.453 126.487 104.69 125.293 105.076 124.144C105.091 124.087 105.108 124.038 105.123 123.991" stroke="black" stroke-width="2" stroke-linecap="round" stroke-linejoin="round"/>
<path d="M105.123 123.984C106.294 123.738 108.038 123.096 108.926 121.44" stroke="black" stroke-width="2" stroke-linecap="round" stroke-linejoin="round"/>
<path d="M97.1331 130.169C97.1331 130.169 98.0532 132.594 100.368 132.889C102.683 133.185 101.219 130.169 101.219 130.169C101.219 130.169 102.179 132.294 103.34 132.365C104.501 132.437 105.504 131.381 105.104 130.169C105.104 130.169 105.458 132.119 107.175 131.905C108.892 131.691 108.183 130.169 108.183 130.169" stroke="black" stroke-width="2" stroke-linecap="round" stroke-linejoin="round"/>
<g opacity="0.54">
<path opacity="0.54" d="M70.7275 164.719L69.067 188.699C68.1666 190.328 67.1531 191.769 66.2503 192.66C66.1297 192.615 66.0043 192.571 65.8887 192.517C65.6673 192.441 65.4483 192.352 65.2392 192.271C61.8739 190.795 59.3352 188.047 58.5726 184.945C57.9035 182.217 58.5087 179.27 57.2098 176.706C55.6255 173.55 51.3058 171.57 50.7867 168.005C50.2947 164.672 53.2935 161.609 52.8088 158.348C52.248 154.658 47.7166 152.463 46.8704 148.854C46.3415 146.611 46.8138 144.038 46.6244 141.72C46.4005 139.139 45.9634 136.58 45.3181 134.07C52.0069 133.578 58.8162 137.268 60.9834 142.549C62.7546 146.872 61.687 151.922 64.4594 155.86C65.9649 157.993 68.4741 159.587 69.7705 161.821C70.1703 162.517 70.4598 163.27 70.6291 164.055C70.6414 164.109 70.6414 164.165 70.6512 164.207C70.6635 164.296 70.6734 164.362 70.6832 164.429C70.7053 164.621 70.7275 164.719 70.7275 164.719Z" fill="#3FBDF1"/>
<path opacity="0.54" d="M70.7398 164.71H70.7275C70.7275 164.71 70.7053 164.611 70.6832 164.424C70.7041 164.5 70.7189 164.577 70.7275 164.655C70.7398 164.675 70.7398 164.697 70.7398 164.71Z" fill="#3FBDF1"/>
</g>
<path d="M92.838 155.359C91.9573 158.471 87.2292 160.363 86.656 163.554C86.1492 166.38 89.2734 169.02 88.7568 171.891C88.2082 174.973 83.7187 176.678 82.0705 179.406C80.7274 181.62 81.3547 184.156 80.661 186.51C79.859 189.184 77.217 191.571 73.6869 192.835C73.4679 192.914 73.2588 192.99 73.0374 193.056C72.9169 193.088 72.7914 193.133 72.6635 193.165C71.4975 192.208 70.1666 190.525 69.0768 188.71L70.7373 164.729H70.7496C72.0362 163.64 73.5097 162.638 74.5331 161.428C75.645 160.119 76.1616 158.69 76.5011 157.194H76.506V157.03C76.998 154.663 77.0349 152.188 78.1468 149.945C80.4002 145.379 87.4727 142.201 94.437 142.619C93.7804 144.775 93.3307 146.988 93.0938 149.229C92.8921 151.212 93.389 153.433 92.838 155.359Z" fill="#3FBDF1"/>
<path d="M76.506 157.009V157.174H76.474C76.4912 157.118 76.506 157.064 76.506 157.009Z" fill="#3FBDF1"/>
<path d="M76.506 157.009C76.506 157.063 76.4839 157.117 76.474 157.174C76.1444 158.67 75.6278 160.099 74.506 161.407C73.4827 162.618 72.0091 163.621 70.7225 164.709C70.7225 164.709 70.7226 164.674 70.7103 164.665C70.7016 164.587 70.6869 164.509 70.666 164.433C70.666 164.367 70.6463 164.3 70.634 164.212C70.634 164.17 70.634 164.114 70.6119 164.059C70.4426 163.275 70.1531 162.522 69.7533 161.826C68.4569 159.592 65.9477 157.998 64.4422 155.865C64.4422 155.865 65.1236 144.623 70.8751 141.201C76.3387 137.966 76.506 155.137 76.506 157.009Z" fill="#3FBDF1"/>
<path d="M76.506 157.009V157.174H76.474C76.4912 157.118 76.506 157.064 76.506 157.009Z" fill="#3FBDF1"/>
<path d="M70.7275 164.665V164.719C70.7275 164.719 70.7053 164.621 70.6832 164.434C70.7041 164.51 70.7189 164.587 70.7275 164.665Z" fill="#3FBDF1"/>
<path d="M70.2158 164.722C71.4974 163.63 72.9833 162.616 74.0116 161.408C76.8947 158.004 75.7852 153.654 77.6351 149.922C79.886 145.362 86.9831 142.183 93.9302 142.602C93.2675 144.756 92.816 146.97 92.5821 149.212C92.3755 151.207 92.8699 153.43 92.3361 155.362C91.4505 158.471 86.7248 160.358 86.1492 163.551C85.64 166.375 88.7716 169.015 88.2525 171.885C87.7015 174.968 83.2169 176.67 81.5638 179.398C80.2181 181.612 80.8504 184.148 80.1517 186.508C79.3055 189.351 76.3707 191.865 72.5257 193.049C72.4027 193.091 72.2797 193.132 72.1469 193.164C70.9808 192.207 69.65 190.527 68.5577 188.709" stroke="black" stroke-width="2" stroke-miterlimit="10"/>
<path d="M89.6793 146.178C79.3006 157.349 74.4273 180.903 72.5208 193.053C72.3658 194.079 72.2256 195.021 72.1051 195.862" stroke="black" stroke-width="2" stroke-miterlimit="10"/>
<path d="M90.6363 202.704L85.854 230.881C85.7411 231.653 85.3578 232.361 84.7721 232.877C84.1864 233.393 83.4366 233.685 82.656 233.7H57.7215C56.9345 233.683 56.1795 233.385 55.5931 232.86C55.0066 232.334 54.6273 231.617 54.5235 230.837L50.1201 202.704H90.6363Z" stroke="black" stroke-width="2" stroke-miterlimit="10"/>
<path d="M95.1725 199.565C95.0372 201.341 93.6301 202.709 91.9425 202.709H48.8925C47.2222 202.709 45.8274 201.371 45.6675 199.614C45.483 197.607 46.9811 195.868 48.8925 195.868H91.9425C93.8367 195.868 95.3275 197.573 95.1725 199.565Z" stroke="black" stroke-width="2" stroke-miterlimit="10"/>
<path d="M65.7386 192.665C67.5861 190.829 69.8468 186.746 70.8505 183.408C71.6746 180.655 70.2207 177.823 69.8886 175.002C69.3671 170.574 71.5639 165.828 69.249 161.823C67.96 159.59 65.4508 158.001 63.9453 155.86C61.1704 151.924 62.2356 146.881 60.4619 142.559C58.302 137.268 51.4927 133.59 44.8065 134.07C45.4456 136.583 45.8783 139.144 46.1004 141.728C46.2997 144.038 45.8224 146.611 46.3464 148.862C47.1951 152.471 51.7314 154.655 52.2873 158.352C52.7793 161.622 49.7732 164.68 50.2677 168.008C50.799 171.577 55.1016 173.55 56.6932 176.711C57.9847 179.28 57.3795 182.222 58.0511 184.947C58.8924 188.352 61.869 191.343 65.7386 192.665Z" stroke="black" stroke-width="2" stroke-miterlimit="10"/>
<path d="M48.8876 138.217C58.8506 151.157 63.5394 178.438 65.3696 192.522C65.527 193.752 65.6673 194.861 65.778 195.862" stroke="black" stroke-width="2" stroke-miterlimit="10"/>
<path d="M63.9453 155.861C63.9453 155.861 64.6291 144.619 70.3781 141.199C76.1272 137.78 76.014 156.948 76.014 156.948" stroke="black" stroke-width="2" stroke-miterlimit="10"/>
<path d="M70.2158 164.722C70.2158 164.722 69.0399 158.289 71.0989 151.967" stroke="black" stroke-width="2" stroke-miterlimit="10"/>
<path d="M202.539 130.169H181.017" stroke="black" stroke-width="2" stroke-linecap="round" stroke-linejoin="round"/>
<path d="M202.889 124.143H181.705" stroke="black" stroke-width="2" stroke-linecap="round" stroke-linejoin="round"/>
<path d="M51.8642 233.7H188.93" stroke="black" stroke-width="2" stroke-miterlimit="10"/>
</svg>
